<?xml version="1.0" standalone="no"?>
<!DOCTYPE svg PUBLIC "-//W3C//DTD SVG 20010904//EN"
 "http://www.w3.org/TR/2001/REC-SVG-20010904/DTD/svg10.dtd">
<svg version="1.0" xmlns="http://www.w3.org/2000/svg"
 width="614.000000pt" height="614.000000pt" viewBox="0 0 614.000000 614.000000"
 preserveAspectRatio="xMidYMid meet">
<metadata>
Created by potrace 1.14, written by Peter Selinger 2001-2017
</metadata>
<g transform="translate(0.000000,614.000000) scale(0.100000,-0.100000)"
fill="#000000" stroke="none">
<path d="M654 4289 c-2 -4 -4 -382 -4 -841 0 -760 -2 -838 -18 -887 -23 -72
-81 -131 -158 -161 -97 -38 -304 -31 -456 16 -15 4 -16 -14 -16 -208 0 -117 2
-221 4 -230 3 -9 36 -30 77 -46 208 -87 552 -98 777 -26 245 78 396 248 449
504 18 90 19 144 20 988 1 490 -2 893 -6 893 -33 5 -666 3 -669 -2z"/>
<path d="M1651 4290 c-9 -7 -7 -1663 3 -1720 51 -299 178 -486 412 -603 174
-87 391 -126 666 -121 556 10 854 217 944 655 15 75 17 176 19 939 l2 855
-298 0 c-292 0 -299 0 -300 -20 -1 -11 -2 -380 -3 -820 -2 -708 -4 -807 -19
-862 -48 -180 -139 -250 -339 -258 -136 -6 -253 31 -320 102 -39 41 -76 129
-87 208 -6 41 -10 400 -10 854 0 431 -3 786 -6 790 -7 7 -654 8 -664 1z"/>
<path d="M4037 4293 c-2 -5 -3 -548 -3 -1208 l1 -1200 288 -1 287 -2 0 754 c0
415 4 754 8 754 5 0 18 -17 29 -37 38 -69 59 -105 450 -788 l390 -680 322 -1
321 -1 0 1208 0 1209 -285 0 -285 0 0 -97 c-1 -54 -1 -358 -1 -675 -1 -318 -4
-580 -8 -582 -4 -3 -18 16 -32 42 -14 26 -75 133 -136 237 -248 428 -337 582
-362 626 -14 25 -78 137 -141 247 l-115 201 -362 1 c-199 0 -364 -3 -366 -7z"/>
</g>
</svg>
